#!OML:ASF F:\VICON\USERDATA\INSTALL\rory3\rory3.ASF
:FULLY-SPECIFIED
:DEGREES
326
root -2.75675 18.3918 -2.29126 3.15367 -33.1116 6.47033
lowerback 11.3464 -0.501975 -0.500734
upperback 6.47296 -0.801097 0.376302
thorax 0.400297 -0.459289 0.756457
lowerneck 2.59245 -1.96541 -6.195
upperneck 30.535 -3.60017 2.57917
head 9.34573 -2.27403 1.7061
rclavicle 3.57812e-015 1.27222e-014
rhumerus -37.352 3.04281 -72.081
rradius 22.3864
rwrist 34.1126
rhand -30.4986 8.18799
rfingers 7.12502
rthumb -3.79894 -21.7579
lclavicle 3.57812e-015 1.27222e-014
lhumerus -38.6675 4.04437 75.5994
lradius 25.5693
lwrist -9.25491
lhand -26.8949 30.0158
lfingers 7.12502
lthumb -0.318558 59.9953
rfemur -21.9926 14.7671 4.91191
rtibia 34.3072
rfoot -21.1069 -10.5606
rtoes -0.171681
lfemur -22.7057 -6.06928 -10.9186
ltibia 24.2269
lfoot -1.2447 -14.9355
ltoes -6.15897
327
root -2.78878 18.3984 -2.34478 3.2822 -32.4755 6.52493
lowerback 11.4567 -0.579073 -0.22624
upperback 6.57891 -0.877776 0.403941
thorax 0.449127 -0.491551 0.639595
lowerneck 2.53159 -2.0099 -6.02431
upperneck 30.5344 -3.70848 2.76432
head 9.35971 -2.2839 1.73355
rclavicle -2.50469e-014 -1.35174e-014
rhumerus -37.23 2.97445 -71.8291
rradius 22.6386
rwrist 33.6357
rhand -31.1135 8.25628
rfingers 7.12502
rthumb -4.39273 -21.6782
lclavicle -2.50469e-014 -1.35174e-014
lhumerus -38.8421 3.11105 76.5226
lradius 25.4631
lwrist -10.0226
lhand -26.9878 28.9027
lfingers 7.12502
lthumb -0.408281 58.882
rfemur -22.1458 14.8248 5.03046
rtibia 34.5074
rfoot -21.2712 -11.2113
rtoes 0.217089
lfemur -23.0718 -5.31532 -11.0721
ltibia 24.2031
lfoot -0.747161 -14.5098
ltoes -5.67146
328
root -2.8187 18.4055 -2.39435 3.40823 -31.8062 6.59589
lowerback 11.5031 -0.704921 0.0169808
upperback 6.69597 -1.02125 0.461333
thorax 0.545365 -0.558296 0.577356
lowerneck 2.4596 -2.02322 -5.96705
upperneck 30.5536 -3.7679 2.94908
head 9.38356 -2.28408 1.78391
rclavicle 6.59965e-014 -4.45278e-014
rhumerus -37.0721 2.89331 -71.4697
rradius 22.8528
rwrist 33.2424
rhand -31.4939 8.82524
rfingers 7.12502
rthumb -4.76002 -21.1013
lclavicle 6.59965e-014 -4.45278e-014
lhumerus -39.0021 2.63395 77.2574
lradius 25.3274
lwrist -11.4759
lhand -26.6593 27.6941
lfingers 7.12502
lthumb -0.0910514 57.6738
rfemur -22.2302 14.7756 5.1252
rtibia 34.6279
rfoot -21.478 -11.769
rtoes 0.728456
lfemur -23.4599 -4.68419 -11.2087
ltibia 24.2359
lfoot 0.477685 -13.6168
ltoes 0.121383
329
root -2.84499 18.4148 -2.44039 3.47412 -31.2069 6.72044
lowerback 11.5852 -0.837384 0.201352
upperback 6.77415 -1.17821 0.505121
thorax 0.581994 -0.632538 0.536567
lowerneck 2.53395 -1.97544 -5.90538
upperneck 30.5401 -3.74135 3.08852
head 9.36366 -2.2506 1.82548
rclavicle 1.43125e-014 1.35174e-014
rhumerus -36.9244 2.88064 -71.1206
rradius 22.9415
rwrist 32.9291
rhand -31.5736 9.34185
rfingers 7.12502
rthumb -4.83697 -20.5829
lclavicle 1.43125e-014 1.35174e-014
lhumerus -39.2086 2.3014 77.9193
lradius 25.1508
lwrist -12.9696
lhand -26.1332 26.6573
lfingers 7.12502
lthumb 0.417075 56.6367
rfemur -22.2737 14.6741 5.1561
rtibia 34.6808
rfoot -21.578 -12.1913
rtoes 1.15096
lfemur -23.8022 -4.00262 -11.4325
ltibia 24.2984
lfoot 0.816857 -13.0234
ltoes 2.14705
330
root -2.86883 18.4255 -2.48394 3.49266 -30.685 6.83483
lowerback 11.7082 -0.958993 0.397362
upperback 6.86615 -1.32006 0.523305
thorax 0.609502 -0.698533 0.46195
lowerneck 2.57222 -1.91159 -5.82195
upperneck 30.5403 -3.67167 3.15014
head 9.35155 -2.20183 1.83856
rclavicle 6.36111e-014 1.03368e-014
rhumerus -36.7858 3.10647 -70.9883
rradius 23.0546
rwrist 32.507
rhand -31.5868 9.2331
rfingers 7.12502
rthumb -4.84978 -20.6914
lclavicle 6.36111e-014 1.03368e-014
lhumerus -39.4309 1.96163 78.5251
lradius 25.0986
lwrist -14.4995
lhand -25.5473 25.91
lfingers 7.12502
lthumb 0.982976 55.8874
rfemur -22.2538 14.6012 5.19028
rtibia 34.678
rfoot -21.6177 -12.571
rtoes 1.2939
lfemur -24.0572 -3.33399 -11.6817
ltibia 24.395
lfoot 0.482386 -12.7813
ltoes -0.0106135
331
root -2.89287 18.4372 -2.52508 3.59128 -30.2356 6.9414
lowerback 11.7205 -1.01796 0.580084
upperback 6.95474 -1.38116 0.526694
thorax 0.69216 -0.723874 0.368656
lowerneck 2.5407 -1.92421 -5.70676
upperneck 30.4943 -3.71518 3.26375
head 9.34105 -2.1951 1.85516
rclavicle 3.4191e-014 -2.38542e-015
rhumerus -36.7097 3.21782 -70.8888
rradius 23.2137
rwrist 32.1476
rhand -31.711 9.23516
rfingers 7.12502
rthumb -4.96964 -20.6866
lclavicle 3.4191e-014 -2.38542e-015
lhumerus -39.5854 1.39429 79.2148
lradius 25.0398
lwrist -15.7841
lhand -25.1866 25.1321
lfingers 7.12502
lthumb 1.33138 55.1077
rfemur -22.2999 14.5311 5.19889
rtibia 34.6264
rfoot -21.6225 -12.9021
rtoes 1.40984
lfemur -24.3709 -2.7148 -11.8919
ltibia 24.5342
lfoot 0.328656 -12.3746
ltoes -0.250464
332
root -2.91774 18.4488 -2.5647 3.81295 -29.8586 7.02488
lowerback 11.6265 -1.03829 0.680596
upperback 6.98693 -1.39848 0.583
thorax 0.775834 -0.730081 0.370034
lowerneck 2.58452 -1.95382 -5.68122
upperneck 30.3974 -3.78961 3.41853
head 9.3028 -2.20915 1.90023
rclavicle 1.98785e-014 2.06736e-014
rhumerus -36.6762 3.14988 -70.6038
rradius 23.3155
rwrist 32.1146
rhand -31.7529 9.97883
rfingers 7.12502
rthumb -5.01015 -19.9419
lclavicle 1.98785e-014 2.06736e-014
lhumerus -39.7001 0.727989 80.0489
lradius 24.8197
lwrist -16.6951
lhand -24.7176 24.142
lfingers 7.12502
lthumb 1.78428 54.1143
rfemur -22.4839 14.4008 5.19854
rtibia 34.5509
rfoot -21.6325 -13.1496
rtoes 1.71173
lfemur -24.7952 -2.04333 -12.0567
ltibia 24.7019
lfoot 0.254037 -11.8404
ltoes 0.789687
333
root -2.94052 18.4595 -2.60152 4.06475 -29.4443 7.10747
lowerback 11.4659 -1.11181 0.776334
upperback 6.99125 -1.48641 0.655684
thorax 0.866931 -0.771622 0.397312
lowerneck 2.70281 -1.92189 -5.77357
upperneck 30.3468 -3.76716 3.52499
head 9.26529 -2.19786 1.95682
rclavicle -3.18055e-014 -3.26007e-014
rhumerus -36.7005 3.60193 -70.5247
rradius 23.5262
rwrist 31.6692
rhand -31.3207 9.8505
rfingers 7.12502
rthumb -4.59282 -20.0797
lclavicle -3.18055e-014 -3.26007e-014
lhumerus -39.8455 0.288443 80.8023
lradius 24.5923
lwrist -17.4062
lhand -23.8753 23.0779
lfingers 7.12502
lthumb 2.59783 53.0418
rfemur -22.696 14.1515 5.18658
rtibia 34.4748
rfoot -21.6838 -13.2993
rtoes 2.25835
lfemur -25.2503 -1.47452 -12.2112
ltibia 24.9086
lfoot -0.0697612 -11.4693
ltoes 0.424421
334
root -2.95977 18.4705 -2.64202 4.27708 -28.9862 7.2883
lowerback 11.3582 -1.17712 0.811798
upperback 6.98359 -1.56843 0.672215
thorax 0.916736 -0.810801 0.400688
lowerneck 2.80007 -1.91484 -5.77566
upperneck 30.2884 -3.77802 3.61514
head 9.22817 -2.19319 1.98928
rclavicle 2.3059e-014 3.18055e-015
rhumerus -36.8237 4.41505 -70.743
rradius 23.9268
rwrist 30.7068
rhand -30.5281 8.95717
rfingers 7.12502
rthumb -3.82742 -20.9882
lclavicle 2.3059e-014 3.18055e-015
lhumerus -39.9732 0.0517165 81.3535
lradius 24.4575
lwrist -18.1496
lhand -23.3312 22.3183
lfingers 7.12502
lthumb 3.12324 52.2752
rfemur -22.9379 13.8547 5.07144
rtibia 34.406
rfoot -21.6514 -13.4808
rtoes 2.62573
lfemur -25.7393 -1.08767 -12.426
ltibia 25.1926
lfoot -0.536036 -10.9114
ltoes -0.781816
335
root -2.97723 18.4809 -2.68531 4.45429 -28.6336 7.41332
lowerback 11.4211 -1.1556 0.81039
upperback 6.97285 -1.53761 0.724694
thorax 0.873046 -0.796003 0.454231
lowerneck 2.91338 -1.97419 -5.76528
upperneck 30.1429 -3.88731 3.74874
head 9.16235 -2.2275 2.0276
rclavicle -4.37326e-014 8.74653e-015
rhumerus -36.9312 4.62425 -70.7342
rradius 24.1259
rwrist 30.5019
rhand -30.1802 8.53732
rfingers 7.12502
rthumb -3.49152 -21.4138
lclavicle -4.37326e-014 8.74653e-015
lhumerus -40.1097 -0.382333 82.0343
lradius 24.4216
lwrist -18.5014
lhand -23.3535 22.0479
lfingers 7.12502
lthumb 3.10167 52.0051
rfemur -23.1783 13.6745 5.01648
rtibia 34.363
rfoot -21.523 -13.748
rtoes 2.50857
lfemur -26.1381 -0.533307 -12.6204
ltibia 25.5441
lfoot -1.11209 -10.1094
ltoes -3.12567
336
root -2.99245 18.4893 -2.72226 4.52868 -28.46 7.4756
lowerback 11.5636 -1.09274 0.895658
upperback 7.01991 -1.44585 0.738571
thorax 0.843801 -0.748128 0.41372
lowerneck 2.98693 -2.04357 -5.74009
upperneck 30.0126 -3.99761 3.83707
head 9.10862 -2.26465 2.04703
rclavicle 1.27222e-014 0
rhumerus -36.9716 4.38527 -70.6269
rradius 24.0871
rwrist 30.9522
rhand -30.1962 8.70665
rfingers 7.12502
rthumb -3.5069 -21.2442
lclavicle 1.27222e-014 0
lhumerus -40.2385 -0.966676 82.7509
lradius 24.4305
lwrist -18.2645
lhand -23.3381 22.0482
lfingers 7.12502
lthumb 3.1166 52.0051
rfemur -23.3275 13.6177 5.02087
rtibia 34.3481
rfoot -21.4376 -13.8894
rtoes 2.48756
lfemur -26.2996 0.115831 -12.7847
ltibia 25.9441
lfoot -1.86337 -9.16739
ltoes -6.27344
337
root -3.00624 18.4957 -2.75727 4.55023 -28.3994 7.6547
lowerback 11.6107 -1.00683 0.941049
upperback 7.09841 -1.33019 0.630192
thorax 0.897026 -0.686934 0.263806
lowerneck 2.93815 -2.10372 -5.6027
upperneck 30.0261 -4.08231 3.84665
head 9.12382 -2.285 2.02049
rclavicle 6.75868e-015 3.57812e-014
rhumerus -37.0474 4.5144 -70.8064
rradius 24.1109
rwrist 31.1299
rhand -30.2758 8.91455
rfingers 7.12502
rthumb -3.58381 -21.0351
lclavicle 6.75868e-015 3.57812e-014
lhumerus -40.2809 -1.40514 83.2093
lradius 24.3722
lwrist -17.9506
lhand -23.2663 22.1124
lfingers 7.12502
lthumb 3.18588 52.0683
rfemur -23.504 13.5847 4.89164
rtibia 34.3277
rfoot -21.4009 -13.9188
rtoes 2.89649
lfemur -26.4432 0.624615 -13.0005
ltibia 26.3841
lfoot -2.61383 -8.03326
ltoes -8.44817
338
root -3.02125 18.5031 -2.79439 4.70735 -28.2917 7.76176
lowerback 11.5429 -0.970864 0.91754
upperback 7.11969 -1.28596 0.607897
thorax 0.955858 -0.664703 0.247686
lowerneck 2.91202 -2.09105 -5.61057
upperneck 30.108 -4.07346 3.88825
head 9.15866 -2.27646 2.03752
rclavicle 2.70347e-014 7.95139e-016
rhumerus -37.0051 4.9253 -70.9551
rradius 23.9265
rwrist 31.4252
rhand -31.3487 10.0444
rfingers 7.12502
rthumb -4.61986 -19.8852
lclavicle 2.70347e-014 7.95139e-016
lhumerus -40.4013 -1.59305 83.6309
lradius 24.3378
lwrist -17.4832
lhand -23.4729 22.2501
lfingers 7.12502
lthumb 2.98641 52.2089
rfemur -23.7672 13.5218 4.83137
rtibia 34.2851
rfoot -21.3169 -14.0583
rtoes 3.08243
lfemur -26.7384 1.06899 -13.0866
ltibia 26.8258
lfoot -3.21159 -6.88409
ltoes -9.40868
339
root -3.03743 18.5146 -2.82633 4.84037 -28.1594 7.75698
lowerback 11.5767 -0.987282 0.854206
upperback 7.11405 -1.31208 0.714111
thorax 0.935609 -0.681817 0.396686
lowerneck 2.97625 -1.99474 -5.8028
upperneck 30.1516 -3.94052 3.91914
head 9.16062 -2.2329 2.09239
rclavicle -1.90833e-014 -3.97569e-015
rhumerus -36.882 5.35232 -70.8989
rradius 23.5528
rwrist 32.1813
rhand -32.6314 11.3519
rfingers 7.12502
rthumb -5.85835 -18.5472
lclavicle -1.90833e-014 -3.97569e-015
lhumerus -40.6584 -1.61087 84.1847
lradius 24.3814
lwrist -16.6873
lhand -23.6458 22.3609
lfingers 7.12502
lthumb 2.81941 52.322
rfemur -23.9249 13.4472 4.90636
rtibia 34.2383
rfoot -21.217 -14.2035
rtoes 2.93278
lfemur -26.8914 1.44834 -13.0399
ltibia 27.2299
lfoot -3.6941 -5.67271
ltoes -9.41747
